<svg width="499" height="304" viewBox="0 0 499 304" fill="none" xmlns="http://www.w3.org/2000/svg">
<path d="M198.141 109.281C198.141 107.615 198.803 106.018 199.981 104.84C201.159 103.662 202.756 103 204.422 103H330.047C331.713 103 333.311 103.662 334.489 104.84C335.667 106.018 336.329 107.615 336.329 109.281C336.329 116.04 336.178 122.472 335.901 128.577C340.865 129.399 345.614 131.207 349.868 133.893C354.123 136.58 357.796 140.091 360.671 144.22C363.547 148.349 365.566 153.012 366.611 157.934C367.655 162.855 367.704 167.937 366.754 172.877C365.803 177.818 363.873 182.519 361.077 186.702C358.281 190.885 354.676 194.466 350.474 197.233C346.272 200.001 341.558 201.899 336.611 202.815C331.663 203.732 326.583 203.649 321.668 202.57C311.744 225.999 298.076 237.456 286.079 240.396V267.694L303.98 272.167C306.417 272.77 308.716 273.863 310.726 275.37L333.816 292.694C334.871 293.485 335.65 294.588 336.043 295.846C336.436 297.104 336.423 298.454 336.006 299.705C335.589 300.956 334.79 302.044 333.72 302.814C332.651 303.585 331.366 304 330.047 304H204.422C203.104 304 201.819 303.585 200.75 302.814C199.68 302.044 198.88 300.956 198.463 299.705C198.047 298.454 198.034 297.104 198.427 295.846C198.82 294.588 199.599 293.485 200.654 292.694L223.743 275.37C225.753 273.863 228.052 272.77 230.49 272.167L248.391 267.694V240.396C236.394 237.456 222.726 225.999 212.802 202.558C207.884 203.642 202.8 203.73 197.848 202.816C192.897 201.902 188.178 200.005 183.972 197.238C179.766 194.47 176.157 190.888 173.358 186.702C170.559 182.516 168.628 177.812 167.677 172.867C166.727 167.922 166.777 162.837 167.825 157.912C168.873 152.987 170.896 148.322 173.777 144.193C176.658 140.063 180.337 136.552 184.597 133.868C188.857 131.184 193.612 129.381 198.581 128.565C198.285 122.141 198.138 115.712 198.141 109.281ZM199.385 141.19C192.829 142.389 187.019 146.144 183.232 151.627C179.445 157.111 177.991 163.874 179.191 170.429C180.39 176.984 184.144 182.795 189.628 186.582C195.111 190.369 201.874 191.823 208.43 190.623C204.246 177.433 201.043 161.152 199.385 141.19ZM326.052 190.623C332.608 191.823 339.371 190.369 344.854 186.582C350.338 182.795 354.092 176.984 355.292 170.429C356.491 163.874 355.037 157.111 351.25 151.627C347.463 146.144 341.653 142.389 335.097 141.19C333.427 161.164 330.223 177.433 326.052 190.623Z" fill="#FFD233"/>
<path d="M55.5 112L68.4095 151.732H110.186L76.3881 176.287L89.2976 216.018L55.5 191.463L21.7023 216.018L34.6119 176.287L0.814209 151.732H42.5904L55.5 112Z" fill="#D9D9D9" fill-opacity="0.83"/>
<path d="M104 51L111.633 74.4934H136.336L116.351 89.0132L123.985 112.507L104 97.9868L84.0153 112.507L91.6487 89.0132L71.664 74.4934H96.3665L104 51Z" fill="#D9D9D9" fill-opacity="0.83"/>
<path d="M371.5 0L383.062 35.5856H420.479L390.208 57.5788L401.771 93.1644L371.5 71.1712L341.229 93.1644L352.791 57.5788L322.521 35.5856H359.938L371.5 0Z" fill="#D9D9D9" fill-opacity="0.83"/>
<path d="M437 160L451.593 204.914H498.819L460.613 232.672L475.206 277.586L437 249.828L398.794 277.586L413.387 232.672L375.181 204.914H422.407L437 160Z" fill="#D9D9D9" fill-opacity="0.83"/>
<path d="M236 36L239.592 47.0557H251.217L241.812 53.8885L245.405 64.9443L236 58.1115L226.595 64.9443L230.188 53.8885L220.783 47.0557H232.408L236 36Z" fill="#D9D9D9" fill-opacity="0.83"/>
<path d="M129 0L132.592 11.0557H144.217L134.812 17.8885L138.405 28.9443L129 22.1115L119.595 28.9443L123.188 17.8885L113.783 11.0557H125.408L129 0Z" fill="#D9D9D9" fill-opacity="0.83"/>
<path d="M236 36L239.592 47.0557H251.217L241.812 53.8885L245.405 64.9443L236 58.1115L226.595 64.9443L230.188 53.8885L220.783 47.0557H232.408L236 36Z" fill="#D9D9D9" fill-opacity="0.83"/>
<path d="M456 87L459.592 98.0557H471.217L461.812 104.889L465.405 115.944L456 109.111L446.595 115.944L450.188 104.889L440.783 98.0557H452.408L456 87Z" fill="#D9D9D9" fill-opacity="0.83"/>
<path d="M122 265L125.592 276.056H137.217L127.812 282.889L131.405 293.944L122 287.111L112.595 293.944L116.188 282.889L106.783 276.056H118.408L122 265Z" fill="#D9D9D9" fill-opacity="0.83"/>
</svg>
